<svg xmlns="http://www.w3.org/2000/svg" viewBox="0 0 512 512" width="512" height="512">
  <rect width="512" height="512" rx="100" fill="#1A1A18"/>
  <rect x="64" y="120" width="384" height="332" rx="40" fill="#2E2E2A"/>
  <rect x="64" y="120" width="384" height="108" rx="40" fill="#3D3D3A"/>
  <rect x="64" y="184" width="384" height="44" fill="#3D3D3A"/>
  <rect x="148" y="56" width="32" height="88" rx="16" fill="#C8502A"/>
  <rect x="332" y="56" width="32" height="88" rx="16" fill="#C8502A"/>
  <text x="256" y="200" font-family="serif" font-size="52" font-weight="bold" fill="#F5F2EB" text-anchor="middle">4月</text>
  <rect x="96"  y="260" width="64" height="56" rx="14" fill="#4A7CC7" opacity="0.85"/>
  <rect x="176" y="260" width="64" height="56" rx="14" fill="#242420" opacity="0.5"/>
  <rect x="256" y="260" width="64" height="56" rx="14" fill="#E8B84B" opacity="0.95"/>
  <rect x="336" y="260" width="64" height="56" rx="14" fill="#242420" opacity="0.5"/>
  <rect x="96"  y="332" width="64" height="56" rx="14" fill="#242420" opacity="0.5"/>
  <rect x="176" y="332" width="64" height="56" rx="14" fill="#D4713A" opacity="0.85"/>
  <rect x="256" y="332" width="64" height="56" rx="14" fill="#242420" opacity="0.5"/>
  <rect x="336" y="332" width="64" height="56" rx="14" fill="#8B5CF6" opacity="0.85"/>
  <circle cx="288" cy="288" r="22" fill="#E8B84B"/>
  <text x="288" y="295" font-family="sans-serif" font-size="20" font-weight="bold" fill="#1A1A18" text-anchor="middle">今</text>
</svg>
