<svg xmlns="http://www.w3.org/2000/svg" viewBox="0 0 192 192" width="192" height="192">
  <rect width="192" height="192" rx="40" fill="#1A1A18"/>
  <rect x="24" y="44" width="144" height="124" rx="16" fill="#2E2E2A"/>
  <rect x="24" y="44" width="144" height="40" rx="16" fill="#3D3D3A"/>
  <rect x="24" y="68" width="144" height="16" fill="#3D3D3A"/>
  <rect x="56" y="24" width="12" height="32" rx="6" fill="#C8502A"/>
  <rect x="124" y="24" width="12" height="32" rx="6" fill="#C8502A"/>
  <text x="96" y="76" font-family="serif" font-size="20" font-weight="bold" fill="#F5F2EB" text-anchor="middle">4月</text>
  <rect x="38" y="98" width="22" height="22" rx="6" fill="#4A7CC7" opacity="0.8"/>
  <rect x="70" y="98" width="22" height="22" rx="6" fill="#1A1A18" opacity="0.3"/>
  <rect x="102" y="98" width="22" height="22" rx="6" fill="#E8B84B" opacity="0.9"/>
  <rect x="134" y="98" width="22" height="22" rx="6" fill="#1A1A18" opacity="0.3"/>
  <rect x="38" y="130" width="22" height="22" rx="6" fill="#1A1A18" opacity="0.3"/>
  <rect x="70" y="130" width="22" height="22" rx="6" fill="#D4713A" opacity="0.8"/>
  <rect x="102" y="130" width="22" height="22" rx="6" fill="#1A1A18" opacity="0.3"/>
  <rect x="134" y="130" width="22" height="22" rx="6" fill="#8B5CF6" opacity="0.8"/>
  <circle cx="109" cy="109" r="8" fill="#E8B84B"/>
  <text x="109" y="113" font-family="sans-serif" font-size="10" font-weight="bold" fill="#1A1A18" text-anchor="middle">今</text>
</svg>
